<svg viewBox="0 0 500 294" class="logo_edW0g" style="fill:#FFFFFF"><polygon style="fill:#FFEF00" points="398.9,212.7 498,212.7 498,292.1 398.9,292.1 374.2,268.9 374.2,236.1 "></polygon><g><path d="M117.7,95c0-25-26.2-30.2-26.8-30.4h0l1.9-0.7c1.6-0.8,3.1-1.8,4.4-3c1.8-1.5,3.6-3.2,5.2-4.9
                c1.9-2.2,3.4-4.7,4.5-7.5c1.3-3.1,1.9-6.5,1.9-9.8c0-9-4.1-16.8-12.2-23.3c-8.2-6.5-19.3-9.8-33.4-9.8H2v125.3h64.7
                C83.3,130.8,117.7,127.7,117.7,95z M42.5,34.8h14.9c2.7-0.1,5.3,0.8,7.3,2.6c3.6,3.4,3.8,9,0.4,12.6c-0.1,0.1-0.3,0.3-0.4,0.4
                c-2,1.8-4.6,2.7-7.3,2.6H42.5V34.8z M42.5,101.8V79.3h19.1c3.2-0.1,6.4,1.1,8.8,3.2c2.3,2,3.5,4.9,3.5,8c0,3-1.2,6-3.5,8v0
                c-2.4,2.2-5.5,3.4-8.8,3.3H42.5z"></path><path d="M123.2,203.2L123.2,203.2l1.9-0.7c1.6-0.8,3.1-1.8,4.4-3c1.8-1.5,3.6-3.2,5.2-4.9c1.9-2.2,3.4-4.7,4.5-7.5
                c1.3-3.1,1.9-6.5,1.9-9.8c0-9-4.1-16.8-12.2-23.3c-8.2-6.5-19.3-9.8-33.4-9.8h-61v125.2h64.6c16.6,0,51-3.1,51-35.8
                C149.9,208.6,123.7,203.4,123.2,203.2z M74.9,173.5h14.8c2.7-0.1,5.3,0.8,7.3,2.6c3.6,3.4,3.8,9,0.4,12.6c-0.1,0.2-0.3,0.3-0.4,0.4
                c-2,1.8-4.6,2.7-7.3,2.6H74.8L74.9,173.5z M102.6,237.2L102.6,237.2c-2.4,2.2-5.5,3.4-8.8,3.3h-19V218h19c3.2-0.1,6.4,1.1,8.8,3.2
                c2.3,2,3.5,4.9,3.5,7.9C106.2,232.2,104.9,235.2,102.6,237.2z"></path><polygon points="221.4,100.4 160.9,100.4 160.9,80.7 210.3,80.7 210.3,52 160.9,52 160.9,36 221.6,36 221.6,5.5
                120.4,5.5 120.4,130.8 221.4,130.8 	"></polygon><polygon points="325,5.5 325,36 358.1,36 358.1,130.8 398.4,130.8 398.4,36 431.5,36 431.5,5.5 	"></polygon><path d="M270,101.2c-4.3-0.1-8.5-1.2-12.3-3.2c-4.2-2.2-7.1-3.9-8.5-5.2c-0.8-0.8-1.5-1.4-2.1-2l-23.9,22.7l1.5,1.5
                c2.1,2,4.3,3.8,6.7,5.4c3.4,2.3,6.9,4.4,10.6,6.3c4.8,2.4,9.8,4.2,14.9,5.4c6,1.5,12.2,2.2,18.5,2.2c15.8,0,28.5-4.1,37.8-12.3
                c9.4-8.2,14.1-18.1,14.1-29.7c0.1-6.1-1.3-12.2-4.1-17.7c-2.3-4.6-5.8-8.6-10.1-11.4c-4.2-2.6-8.6-5-13.1-6.9
                c-3.9-1.7-7.9-3.1-12.1-4.2l-1.1-0.3c-3.5-0.8-6.9-2-10.1-3.7c-2.7-1.5-4-3.2-4-5.1c0-2.3,1-4.4,2.8-5.8c1.8-1.5,4.5-2.3,7.9-2.3
                c5.9-0.2,11.6,2.1,15.8,6.3l24-22.8l-0.4-0.5c-1.6-1.8-3.4-3.3-5.4-4.6c-2.9-1.9-5.9-3.6-9-5.2c-4.2-2-8.7-3.5-13.3-4.5
                c-5.6-1.3-11.3-1.9-17.1-1.9c-15,0-27.1,4-36.3,11.9c-9.2,8-13.7,17.3-13.7,28c-0.1,5.3,0.9,10.5,3,15.4c1.8,4.1,4.4,7.8,7.8,10.8
                c3.2,2.7,6.8,5.1,10.5,7.1c3.2,1.7,6.4,3.1,9.8,4.3c0.6,0.2,1.2,0.5,1.9,0.7c3.9,1.3,7.5,2.4,10.7,3.5c2.7,0.9,5.3,2.1,7.8,3.5
                c2,1.2,3.1,2.7,3.1,4.4c0,2.7-1.2,5.3-3.3,7l0,0C277,100.3,273.9,101.2,270,101.2z"></path><path d="M221.6,218.6c-0.2,8.3-7.1,14.9-15.4,14.7c-8-0.2-14.5-6.7-14.7-14.7v-74.4h-40.5v72.5
                c0,29.9,24.2,54.1,54.1,54.1h2.5c29.9,0,54.1-24.2,54.1-54.1v-72.5h-40.2V218.6z"></path><polygon points="357.5,144.2 331,186.8 304.5,144.2 263.9,144.2 310.7,224.8 310.7,269.5 351.3,269.5 351.3,224.8
                398.2,144.2 	"></polygon><polygon points="396.5,180.8 398.8,180.8 398.7,187.8 399.7,187.8 399.7,180.8 402,180.8 402,180 396.5,180 	"></polygon><polygon points="406.6,186.8 404.2,180 402.9,180 402.9,187.8 403.8,187.8 403.8,181.2 406.1,187.8 407,187.8
                409.4,181.2 409.4,187.8 410.3,187.8 410.3,180 409,180 	"></polygon><polygon points="411,189.4 411.8,189.4 414.8,179.8 414,179.8 	"></polygon><polygon points="419.4,186.8 417,180 415.7,180 415.6,187.8 416.5,187.8 416.5,181.2 418.9,187.8 419.8,187.8
                422,181.2 422,187.8 423,187.8 423,180 421.7,180 	"></polygon><path d="M427.9,187.2c-1.7,0-2.7-1.2-2.7-3.2v-0.1c0-2,1.1-3.2,2.7-3.2c0,0,0,0,0,0c1.1-0.1,2.1,0.7,2.2,1.8h0.9
                c-0.2-1.6-1.6-2.7-3.2-2.6c-0.1,0-0.2,0-0.3,0c-2,0.2-3.6,1.9-3.4,4v0.1c0,2.3,1.4,3.9,3.6,3.9c1.6,0.2,3.1-1,3.3-2.7h-0.9
                C430.1,186.4,429.1,187.3,427.9,187.2z"></path></g><path style="fill:#142029" d="M393.9,252.4c0,2.7-2.2,4.9-4.9,4.9c-2.7,0-4.9-2.2-4.9-4.9c0-2.7,2.2-4.9,4.9-4.9c0,0,0,0,0,0
        C391.7,247.4,393.9,249.6,393.9,252.4C393.9,252.3,393.9,252.3,393.9,252.4"></path></svg>